<svg width="58" height="58" viewBox="0 0 58 58" fill="none" xmlns="http://www.w3.org/2000/svg">
<path d="M9.50331 2.432C7.55069 0.479374 4.38486 0.479374 2.43224 2.432C0.479618 4.38462 0.479618 7.55044 2.43224 9.50306L9.50331 2.432ZM52.9678 57.9675C55.7292 57.9675 57.9678 55.729 57.9678 52.9675L57.9678 7.96753C57.9678 5.20611 55.7292 2.96753 52.9678 2.96753C50.2064 2.96753 47.9678 5.20611 47.9678 7.96753V47.9675H7.96778C5.20635 47.9675 2.96778 50.2061 2.96778 52.9675C2.96778 55.729 5.20635 57.9675 7.96778 57.9675L52.9678 57.9675ZM2.43224 9.50306L49.4322 56.5031L56.5033 49.432L9.50331 2.432L2.43224 9.50306Z" fill="#2E5170"/>
</svg>
