<svg width="30" height="30" viewBox="0 0 30 30" fill="none" xmlns="http://www.w3.org/2000/svg">
<path d="M3.2088 23.744C2.23248 24.7203 2.23248 26.3032 3.2088 27.2795C4.18511 28.2558 5.76802 28.2558 6.74433 27.2795L3.2088 23.744ZM28.5004 4.48792C28.5004 3.10721 27.3811 1.98792 26.0004 1.98792H3.50036C2.11965 1.98792 1.00036 3.10721 1.00036 4.48792C1.00036 5.86863 2.11965 6.98792 3.50036 6.98792H23.5004V26.9879C23.5004 28.3686 24.6196 29.4879 26.0004 29.4879C27.3811 29.4879 28.5004 28.3686 28.5004 26.9879V4.48792ZM6.74433 27.2795L27.7681 6.25569L24.2326 2.72015L3.2088 23.744L6.74433 27.2795Z" fill="#2E5170"/>
</svg>
