<svg width="143" height="62" viewBox="0 0 143 62" fill="none" xmlns="http://www.w3.org/2000/svg">
<path d="M33.3816 0.52002H36.7416C64.6616 0.52002 70.0216 19.32 70.0216 29.88V32.28C70.0216 42.68 64.5016 61.96 36.7416 61.96H33.3816C5.54156 61.96 0.101562 42.68 0.101562 32.28V29.88C0.101562 19.08 5.54156 0.52002 33.3816 0.52002ZM52.9016 31.56V30.44C52.9016 25.08 50.6616 14.12 35.0616 14.12C19.3016 14.12 17.2216 25.08 17.2216 30.44V31.56C17.2216 37 19.7816 48.28 35.1416 48.28C50.5016 48.28 52.9016 37 52.9016 31.56Z" fill="#EFF4F9"/>
<path d="M111.705 61.88H108.345C83.1453 61.88 79.1453 47.64 79.1453 41.48V40.76H96.7453C96.9853 42.36 97.7853 48.6 110.425 48.6C123.145 48.6 124.825 44.52 124.825 41.48C124.825 38.36 122.905 36.28 116.825 36.28H97.7853V24.2H116.745C122.585 24.2 124.025 21.88 124.025 19.4C124.025 16.6 122.665 13.56 110.265 13.56C97.8653 13.56 97.3053 18.28 97.0653 19.72H79.9453V18.84C79.9453 13.96 82.8253 0.760021 107.225 0.760021H111.705C135.865 0.760021 140.425 9.32002 140.425 16.04V16.6C140.425 23 136.025 26.12 131.545 27.64C136.665 28.92 142.265 33.16 142.265 41.24V41.8C142.265 50.76 136.905 61.88 111.705 61.88Z" fill="#EFF4F9"/>
</svg>
