<svg width="109" height="62" viewBox="0 0 109 62" fill="none" xmlns="http://www.w3.org/2000/svg">
<path d="M33.6941 0.52002H37.0541C64.9741 0.52002 70.3341 19.32 70.3341 29.88V32.28C70.3341 42.68 64.8141 61.96 37.0541 61.96H33.6941C5.85406 61.96 0.414062 42.68 0.414062 32.28V29.88C0.414062 19.08 5.85406 0.52002 33.6941 0.52002ZM53.2141 31.56V30.44C53.2141 25.08 50.9741 14.12 35.3741 14.12C19.6141 14.12 17.5341 25.08 17.5341 30.44V31.56C17.5341 37 20.0941 48.28 35.4541 48.28C50.8141 48.28 53.2141 37 53.2141 31.56Z" fill="#EFF4F9"/>
<path d="M92.5166 22.52H78.3566V10.44C90.3566 10.44 94.0366 8.68002 96.5966 1.48002H108.917V61H92.5166V22.52Z" fill="#EFF4F9"/>
</svg>
