<svg width="147" height="62" viewBox="0 0 147 62" fill="none" xmlns="http://www.w3.org/2000/svg">
<path d="M33.5534 0.52002H36.9134C64.8334 0.52002 70.1934 19.32 70.1934 29.88V32.28C70.1934 42.68 64.6734 61.96 36.9134 61.96H33.5534C5.71344 61.96 0.273438 42.68 0.273438 32.28V29.88C0.273438 19.08 5.71344 0.52002 33.5534 0.52002ZM53.0734 31.56V30.44C53.0734 25.08 50.8334 14.12 35.2334 14.12C19.4734 14.12 17.3934 25.08 17.3934 30.44V31.56C17.3934 37 19.9534 48.28 35.3134 48.28C50.6734 48.28 53.0734 37 53.0734 31.56Z" fill="#EFF4F9"/>
<path d="M79.4772 48.04V37.56L112.037 1.08002H133.797V35.24H146.437V48.04H133.797V61H117.477V48.04H79.4772ZM117.477 35.24V12.28L97.0772 35.24H117.477Z" fill="#EFF4F9"/>
</svg>
