<svg width="142" height="62" viewBox="0 0 142 62" fill="none" xmlns="http://www.w3.org/2000/svg">
<path d="M33.4675 0.52002H36.8275C64.7475 0.52002 70.1075 19.32 70.1075 29.88V32.28C70.1075 42.68 64.5875 61.96 36.8275 61.96H33.4675C5.6275 61.96 0.1875 42.68 0.1875 32.28V29.88C0.1875 19.08 5.6275 0.52002 33.4675 0.52002ZM52.9875 31.56V30.44C52.9875 25.08 50.7475 14.12 35.1475 14.12C19.3875 14.12 17.3075 25.08 17.3075 30.44V31.56C17.3075 37 19.8675 48.28 35.2275 48.28C50.5875 48.28 52.9875 37 52.9875 31.56Z" fill="#EFF4F9"/>
<path d="M112.671 61.88H109.471C84.5912 61.88 80.9112 49.32 80.9112 44.36V43.24H98.2712C98.5112 44.6 100.271 48.6 111.231 48.6C121.551 48.6 124.831 45.24 124.831 41.24V40.76C124.831 36.52 121.791 33.64 111.231 33.64C100.591 33.64 98.3512 36.76 98.1113 38.28H81.7913V1.48002H137.071V15H98.1113V26.04C98.7513 25.4 104.111 21.4 114.831 21.4H115.631C136.351 21.4 141.231 31.08 141.231 39.88V40.84C141.231 49.88 135.551 61.88 112.671 61.88Z" fill="#EFF4F9"/>
</svg>
