<svg width="142" height="62" viewBox="0 0 142 62" fill="none" xmlns="http://www.w3.org/2000/svg">
<path d="M33.4284 0.52002H36.7884C64.7084 0.52002 70.0684 19.32 70.0684 29.88V32.28C70.0684 42.68 64.5484 61.96 36.7884 61.96H33.4284C5.58844 61.96 0.148438 42.68 0.148438 32.28V29.88C0.148438 19.08 5.58844 0.52002 33.4284 0.52002ZM52.9484 31.56V30.44C52.9484 25.08 50.7084 14.12 35.1084 14.12C19.3484 14.12 17.2684 25.08 17.2684 30.44V31.56C17.2684 37 19.8284 48.28 35.1884 48.28C50.5484 48.28 52.9484 37 52.9484 31.56Z" fill="#EFF4F9"/>
<path d="M141.442 61H79.6016V52.36C79.6016 43.88 80.7216 36.04 103.122 29L112.642 26.12C120.562 23.8 122.642 22.2 122.642 19.24C122.642 16.04 120.562 13.48 110.722 13.48C99.0416 13.48 98.0816 20.04 97.8416 22.92H80.6416V22.36C80.6416 14.28 84.6416 0.760021 108.642 0.760021H112.242C133.522 0.760021 140.082 9.00002 140.082 19.16V19.8C140.082 30.12 134.322 34.44 117.762 38.28C114.562 39 111.042 39.8 108.242 40.52C96.4816 43.48 94.4016 45.48 94.4016 46.76H141.442V61Z" fill="#EFF4F9"/>
</svg>
