<svg width="156" height="53" viewBox="0 0 156 53" fill="none" xmlns="http://www.w3.org/2000/svg">
<g clip-path="url(#clip0_335_1889)">
<path d="M155.974 27.2239C155.974 45.428 95.5144 53 47.3338 53C8.7326 53 41.3952 46.9656 41.9889 26.5854C43.7706 3.35876 7.99739 0 44.6019 0C92.7825 0 155.974 9.0199 155.974 27.2239Z" fill="#B9D1E6"/>
<path d="M19.7808 45.4851C30.7055 45.4851 39.5617 36.5204 39.5617 25.4618C39.5617 14.4032 30.7055 5.43848 19.7808 5.43848C8.85618 5.43848 0 14.4032 0 25.4618C0 36.5204 8.85618 45.4851 19.7808 45.4851Z" fill="#2E5170"/>
<path d="M16.2498 28.4074H18.2423C18.1917 29.5035 17.9715 30.4498 17.5817 31.2463C17.1991 32.0354 16.6397 32.642 15.9033 33.0658C15.1743 33.4896 14.2611 33.7015 13.1639 33.7015C12.3771 33.7015 11.666 33.5444 11.0308 33.2301C10.3956 32.916 9.85051 32.4666 9.39575 31.882C8.94819 31.2901 8.6053 30.5813 8.36709 29.7556C8.12887 28.9299 8.00977 28.0019 8.00977 26.9716V24.0231C8.00977 23.0001 8.12887 22.0758 8.36709 21.25C8.61252 20.4244 8.96263 19.7193 9.41741 19.1347C9.87942 18.5428 10.4389 18.0897 11.0958 17.7755C11.7598 17.4613 12.5106 17.3042 13.348 17.3042C14.373 17.3042 15.2393 17.5124 15.9467 17.9289C16.6614 18.3382 17.21 18.941 17.5926 19.7375C17.9823 20.5266 18.1989 21.4949 18.2423 22.6421H16.2498C16.1993 21.8018 16.0694 21.1185 15.8601 20.5924C15.6507 20.059 15.3403 19.668 14.9289 19.4197C14.5246 19.1638 13.9976 19.036 13.348 19.036C12.7705 19.036 12.2688 19.1529 11.8429 19.3867C11.4242 19.6206 11.0777 19.9567 10.8034 20.3951C10.5363 20.8262 10.3341 21.3487 10.197 21.9625C10.0671 22.569 10.0021 23.2486 10.0021 24.0012V26.9716C10.0021 27.673 10.0562 28.327 10.1646 28.9335C10.28 29.5401 10.4605 30.0734 10.7059 30.5338C10.9586 30.9868 11.287 31.3413 11.6912 31.597C12.0956 31.8527 12.5864 31.9807 13.1639 31.9807C13.893 31.9807 14.4704 31.86 14.8963 31.6189C15.3222 31.3778 15.6363 30.9941 15.8384 30.4681C16.0477 29.9419 16.1849 29.255 16.2498 28.4074Z" fill="white"/>
<path d="M23.0285 17.5234V33.4823H21.0361V17.5234H23.0285ZM31.1387 17.5234L25.4432 26.3029H22.238L21.9024 24.5493H24.2412L28.6699 17.5234H31.1387ZM29.0814 33.4823L24.3387 26.0289L25.4539 24.1766L31.5069 33.4823H29.0814Z" fill="white"/>
<path d="M57.7955 17.6948V19.8961H52.6076V32.0033H50.0137V17.6948H57.7955Z" fill="#2E5170"/>
<path d="M61.9538 32.1998C61.2542 32.1998 60.6325 32.0917 60.0885 31.8755C59.5508 31.6593 59.0943 31.3448 58.7186 30.9321C58.343 30.5194 58.0547 30.0116 57.854 29.4089C57.6597 28.8061 57.5625 28.1149 57.5625 27.3353V26.382C57.5625 25.4976 57.6629 24.7311 57.8637 24.0825C58.0645 23.4274 58.343 22.8868 58.6992 22.461C59.0619 22.0286 59.4958 21.7075 60.0011 21.4979C60.5127 21.2817 61.0762 21.1736 61.6915 21.1736C62.3521 21.1736 62.9285 21.285 63.4208 21.5077C63.9194 21.724 64.3308 22.0482 64.6546 22.4806C64.9784 22.913 65.218 23.4502 65.3735 24.0923C65.5354 24.7278 65.6164 25.4648 65.6164 26.3034V27.5122H58.6798V25.6745H63.1681V25.4288C63.1553 24.9702 63.1002 24.5804 63.003 24.2594C62.9059 23.9384 62.7505 23.6959 62.5367 23.5322C62.3294 23.3618 62.0444 23.2767 61.6817 23.2767C61.3968 23.2767 61.1507 23.3356 60.9434 23.4536C60.7361 23.5649 60.5677 23.7418 60.4382 23.9842C60.3151 24.2201 60.2212 24.5378 60.1565 24.9375C60.0917 25.3305 60.0593 25.8121 60.0593 26.382V27.3353C60.0593 27.8398 60.1046 28.2689 60.1954 28.6227C60.286 28.9699 60.4188 29.2549 60.5936 29.4777C60.7686 29.6938 60.9823 29.851 61.2348 29.9493C61.4874 30.0476 61.7821 30.0968 62.1189 30.0968C62.6241 30.0968 63.0677 30.005 63.4499 29.8216C63.832 29.6316 64.1624 29.3794 64.4409 29.0649L65.4804 30.6078C65.2926 30.8633 65.0367 31.1155 64.7129 31.3645C64.389 31.6069 63.9972 31.8067 63.5374 31.9639C63.0839 32.1211 62.5561 32.1998 61.9538 32.1998Z" fill="#2E5170"/>
<path d="M66.9863 27.0798V26.3034C66.9863 25.4714 67.0867 24.7376 67.2875 24.1021C67.4883 23.4601 67.7733 22.9229 68.1425 22.4905C68.5117 22.0581 68.9521 21.7305 69.4638 21.5077C69.9819 21.285 70.5551 21.1736 71.1833 21.1736C71.8245 21.1736 72.4009 21.285 72.9126 21.5077C73.4308 21.7305 73.8745 22.0581 74.2436 22.4905C74.6192 22.9229 74.9042 23.4601 75.0985 24.1021C75.2993 24.7376 75.3997 25.4714 75.3997 26.3034V27.0798C75.3997 27.9118 75.2993 28.6456 75.0985 29.2811C74.9042 29.9166 74.6192 30.4538 74.2436 30.8928C73.8745 31.3252 73.4308 31.6528 72.9126 31.8755C72.4009 32.0917 71.831 32.1998 71.2027 32.1998C70.5745 32.1998 70.0013 32.0917 69.4831 31.8755C68.9714 31.6528 68.5279 31.3252 68.1522 30.8928C67.7765 30.4538 67.4883 29.9166 67.2875 29.2811C67.0867 28.6456 66.9863 27.9118 66.9863 27.0798ZM69.4831 26.3034V27.0798C69.4831 27.5974 69.522 28.0462 69.5997 28.4262C69.6775 28.7996 69.7908 29.1107 69.9398 29.3597C70.0952 29.6087 70.2766 29.7954 70.4838 29.9199C70.6975 30.0378 70.9372 30.0968 71.2027 30.0968C71.4878 30.0968 71.737 30.0378 71.9508 29.9199C72.1645 29.7954 72.3427 29.6087 72.4851 29.3597C72.6276 29.1107 72.7345 28.7996 72.8057 28.4262C72.877 28.0462 72.9126 27.5974 72.9126 27.0798V26.3034C72.9126 25.799 72.8705 25.3567 72.7863 24.9767C72.7086 24.5967 72.5953 24.2823 72.4463 24.0333C72.2974 23.7844 72.116 23.5976 71.9022 23.4732C71.6885 23.3421 71.4489 23.2767 71.1833 23.2767C70.9242 23.2767 70.6911 23.3421 70.4838 23.4732C70.2766 23.5976 70.0952 23.7844 69.9398 24.0333C69.7908 24.2823 69.6775 24.5967 69.5997 24.9767C69.522 25.3567 69.4831 25.799 69.4831 26.3034Z" fill="#2E5170"/>
<path d="M83.3075 21.3701V23.483H79.7615V32.0032H77.2744V21.3701H83.3075Z" fill="#2E5170"/>
<path d="M87.116 23.4142V36.0914H84.6289V21.3702H86.9217L87.116 23.4142ZM92.6731 26.2936V27.0699C92.6731 27.902 92.5986 28.6358 92.4496 29.2713C92.3071 29.9068 92.0934 30.444 91.8084 30.883C91.5235 31.3219 91.1705 31.6528 90.7494 31.8755C90.3285 32.0917 89.8362 32.1998 89.2728 32.1998C88.7417 32.1998 88.2851 32.0786 87.9029 31.8362C87.5208 31.5938 87.197 31.2531 86.9314 30.8141C86.6659 30.3752 86.4554 29.8609 86.3 29.2713C86.1445 28.6817 86.0279 28.0428 85.9502 27.355V26.1561C86.0214 25.4223 86.1316 24.7507 86.2805 24.1415C86.4359 23.5322 86.6464 23.0048 86.912 22.5593C87.1776 22.1137 87.5014 21.7731 87.8835 21.5372C88.2721 21.2948 88.7287 21.1736 89.2533 21.1736C89.8233 21.1736 90.322 21.2784 90.7494 21.4881C91.1769 21.6911 91.5331 22.0024 91.8181 22.4217C92.1031 22.841 92.3169 23.3749 92.4593 24.0235C92.6018 24.6656 92.6731 25.4223 92.6731 26.2936ZM90.1762 27.0699V26.2936C90.1762 25.7695 90.1439 25.3175 90.0791 24.9375C90.0208 24.5575 89.9237 24.2463 89.7876 24.0038C89.6581 23.7615 89.4865 23.5846 89.2728 23.4732C89.0655 23.3553 88.8129 23.2963 88.5149 23.2963C88.23 23.2963 87.9806 23.3553 87.7669 23.4732C87.5531 23.5846 87.3783 23.7451 87.2423 23.9547C87.1062 24.1643 86.9962 24.4166 86.912 24.7114C86.8343 24.9997 86.7889 25.3207 86.776 25.6745V27.8463C86.8083 28.2656 86.8828 28.6456 86.9994 28.9862C87.1225 29.327 87.3071 29.5988 87.5531 29.8019C87.7993 29.9985 88.1263 30.0968 88.5344 30.0968C88.8389 30.0968 89.0947 30.0346 89.3019 29.9101C89.5092 29.7856 89.6776 29.5988 89.8071 29.3499C89.9431 29.1009 90.037 28.7865 90.0888 28.4065C90.1471 28.0265 90.1762 27.5809 90.1762 27.0699Z" fill="#2E5170"/>
<path d="M99.2304 29.7037V24.5935C99.2304 24.2463 99.1855 23.9711 99.0946 23.768C99.0106 23.5649 98.8846 23.4175 98.7156 23.3258C98.5476 23.2275 98.3405 23.1784 98.0943 23.1784C97.8286 23.1784 97.605 23.2341 97.4236 23.3454C97.2423 23.4502 97.1064 23.6042 97.0156 23.8073C96.9314 24.0038 96.8893 24.2364 96.8893 24.5051H94.3925C94.3925 24.0595 94.48 23.637 94.6549 23.2373C94.8298 22.8376 95.0824 22.484 95.4126 22.1759C95.743 21.8615 96.1413 21.6159 96.6076 21.439C97.0739 21.2621 97.5953 21.1736 98.1715 21.1736C98.8582 21.1736 99.4668 21.2915 99.9982 21.5274C100.535 21.7567 100.956 22.1269 101.261 22.6379C101.572 23.1423 101.727 23.804 101.727 24.6229V29.4777C101.727 30.0214 101.756 30.4833 101.815 30.8633C101.88 31.2433 101.973 31.5676 102.096 31.8362V32.0033H99.5703C99.4609 31.7281 99.3769 31.3808 99.3183 30.9616C99.2597 30.5357 99.2304 30.1164 99.2304 29.7037ZM99.5518 25.5172L99.5606 27.0896H98.5114C98.2203 27.0896 97.9615 27.1322 97.7349 27.2174C97.5144 27.3025 97.3265 27.4237 97.1711 27.5809C97.0156 27.7383 96.8991 27.925 96.8213 28.1411C96.7437 28.3574 96.7048 28.5932 96.7048 28.8487C96.7048 29.1436 96.7469 29.3892 96.8311 29.5858C96.9153 29.7757 97.0383 29.9199 97.2002 30.0182C97.3622 30.1099 97.5597 30.1557 97.7925 30.1557C98.1236 30.1557 98.4079 30.0836 98.6482 29.9395C98.8944 29.7954 99.079 29.625 99.2011 29.4285C99.331 29.2254 99.3798 29.0354 99.3476 28.8585L99.9112 29.8806C99.8458 30.123 99.7452 30.3785 99.6094 30.6471C99.4736 30.9157 99.2988 31.1679 99.0848 31.4038C98.8777 31.6396 98.6218 31.8329 98.317 31.9836C98.0191 32.1278 97.6666 32.1998 97.2586 32.1998C96.6821 32.1998 96.1607 32.072 95.6944 31.8165C95.2346 31.561 94.8719 31.2007 94.6063 30.7355C94.3408 30.2639 94.208 29.7004 94.208 29.0453C94.208 28.5081 94.2954 28.0232 94.4703 27.5908C94.6451 27.1584 94.901 26.7882 95.2378 26.4803C95.581 26.1724 96.015 25.9366 96.5396 25.7727C97.0643 25.6024 97.6795 25.5172 98.3854 25.5172H99.5518Z" fill="#2E5170"/>
<path d="M114.678 26.7851V26.9914C114.678 27.7514 114.607 28.4491 114.464 29.0847C114.328 29.7202 114.124 30.2705 113.851 30.7357C113.58 31.2008 113.24 31.5611 112.832 31.8166C112.43 32.0721 111.96 32.1999 111.423 32.1999C110.911 32.1999 110.468 32.0951 110.092 31.8854C109.723 31.6693 109.412 31.3679 109.16 30.9814C108.907 30.5882 108.703 30.1329 108.547 29.6153C108.399 29.0913 108.288 28.5245 108.217 27.9152V25.7728C108.288 25.1112 108.399 24.5019 108.547 23.945C108.703 23.3881 108.904 22.9033 109.15 22.4906C109.402 22.0712 109.717 21.747 110.092 21.5177C110.468 21.2884 110.908 21.1737 111.413 21.1737C111.847 21.1737 112.236 21.2622 112.58 21.4391C112.929 21.616 113.233 21.8715 113.492 22.2056C113.758 22.5397 113.975 22.9393 114.144 23.4046C114.318 23.8632 114.451 24.3774 114.542 24.9474C114.632 25.5173 114.678 26.1299 114.678 26.7851ZM112.191 26.9817V26.7851C112.191 26.3986 112.171 26.0317 112.132 25.6844C112.1 25.3372 112.048 25.0162 111.977 24.7213C111.912 24.4266 111.822 24.1743 111.704 23.9647C111.588 23.7485 111.449 23.5815 111.287 23.4635C111.132 23.339 110.943 23.2768 110.724 23.2768C110.367 23.2768 110.073 23.3619 109.84 23.5323C109.606 23.6961 109.428 23.9319 109.305 24.2398C109.189 24.5412 109.118 24.8917 109.091 25.2914V28.3869C109.124 28.7342 109.198 29.0355 109.315 29.291C109.431 29.5465 109.603 29.7464 109.83 29.8905C110.063 30.0281 110.367 30.0969 110.743 30.0969C111.015 30.0969 111.241 30.0183 111.423 29.8611C111.611 29.7038 111.76 29.4876 111.87 29.2124C111.98 28.9307 112.061 28.5998 112.113 28.2198C112.164 27.8399 112.191 27.4271 112.191 26.9817ZM103.563 26.9914V26.7851C103.563 26.1299 103.608 25.5173 103.699 24.9474C103.79 24.3774 103.923 23.8632 104.098 23.4046C104.28 22.9393 104.499 22.5397 104.758 22.2056C105.018 21.8715 105.319 21.616 105.662 21.4391C106.011 21.2622 106.4 21.1737 106.828 21.1737C107.333 21.1737 107.767 21.2884 108.129 21.5177C108.498 21.747 108.81 22.0712 109.062 22.4906C109.315 22.9033 109.515 23.3881 109.665 23.945C109.813 24.5019 109.924 25.1112 109.995 25.7728V27.8071C109.917 28.4361 109.803 29.0192 109.655 29.5564C109.512 30.0936 109.315 30.5588 109.062 30.9519C108.81 31.345 108.498 31.6529 108.129 31.8757C107.767 32.0918 107.33 32.1999 106.818 32.1999C106.294 32.1999 105.827 32.0721 105.419 31.8166C105.018 31.5611 104.677 31.2008 104.399 30.7357C104.12 30.2705 103.91 29.7202 103.768 29.0847C103.632 28.4491 103.563 27.7514 103.563 26.9914ZM106.06 26.7851V26.9914C106.06 27.4304 106.083 27.8399 106.129 28.2198C106.174 28.5998 106.248 28.9307 106.351 29.2124C106.462 29.4876 106.607 29.7038 106.789 29.8611C106.971 30.0118 107.2 30.0871 107.479 30.0871C107.855 30.0871 108.156 30.015 108.382 29.8708C108.616 29.7202 108.791 29.5105 108.907 29.2419C109.023 28.9733 109.091 28.6589 109.111 28.2985V25.2914C109.091 24.8917 109.02 24.5412 108.897 24.2398C108.781 23.9319 108.606 23.6961 108.372 23.5323C108.146 23.3619 107.855 23.2768 107.498 23.2768C107.22 23.2768 106.986 23.3717 106.799 23.5618C106.617 23.7452 106.472 23.9974 106.361 24.3184C106.252 24.6395 106.174 25.0129 106.129 25.4387C106.083 25.8581 106.06 26.3068 106.06 26.7851ZM107.838 36.0915V16.9087H110.335V36.0915H107.838Z" fill="#2E5170"/>
<path d="M119.011 27.6497L121.896 21.3701H124.316V32.0032H121.848V25.7432L118.972 32.0032H116.543V21.3701H119.011V27.6497Z" fill="#2E5170"/>
<path d="M128.327 26.726H130.872L128.356 32.0032H125.811L128.327 26.726ZM129.979 21.3701H133.923V32.0032H131.436V23.4535H129.979C129.681 23.4535 129.432 23.5289 129.23 23.6795C129.036 23.8236 128.891 24.0103 128.794 24.2396C128.703 24.4624 128.657 24.6917 128.657 24.9275C128.657 25.1568 128.703 25.3829 128.794 25.6057C128.891 25.8218 129.036 25.9987 129.23 26.1364C129.425 26.2739 129.665 26.3427 129.949 26.3427H132.291V28.2197H129.949C129.36 28.2197 128.833 28.1378 128.366 27.9741C127.9 27.8037 127.501 27.5679 127.171 27.2665C126.841 26.9586 126.588 26.6015 126.413 26.1953C126.245 25.7826 126.16 25.3337 126.16 24.8489C126.16 24.3511 126.248 23.8892 126.423 23.4633C126.598 23.0374 126.851 22.6706 127.181 22.3627C127.511 22.0481 127.91 21.8058 128.376 21.6354C128.848 21.4585 129.383 21.3701 129.979 21.3701Z" fill="#2E5170"/>
</g>
<defs>
<clipPath id="clip0_335_1889">
<rect width="156" height="53" fill="white"/>
</clipPath>
</defs>
</svg>
