<svg width="30" height="30" viewBox="0 0 30 30" fill="none" xmlns="http://www.w3.org/2000/svg">
<path d="M14.8137 0C6.72496 0 0.160156 6.72 0.160156 15C0.160156 23.28 6.72496 30 14.8137 30C22.9025 30 29.4673 23.28 29.4673 15C29.4673 6.72 22.9025 0 14.8137 0ZM21.613 10.2C21.3932 12.57 20.4407 18.33 19.9571 20.985C19.752 22.11 19.3417 22.485 18.9607 22.53C18.1108 22.605 17.466 21.96 16.6454 21.405C15.3559 20.535 14.6232 19.995 13.3777 19.155C11.927 18.18 12.8648 17.64 13.7001 16.77C13.9199 16.545 17.6712 13.05 17.7444 12.735C17.7546 12.6873 17.7533 12.6378 17.7405 12.5907C17.7277 12.5437 17.7039 12.5005 17.6712 12.465C17.5833 12.39 17.466 12.42 17.3635 12.435C17.2316 12.465 15.1801 13.86 11.1796 16.62C10.5935 17.025 10.066 17.235 9.59706 17.22C9.06953 17.205 8.07309 16.92 7.32575 16.665C6.40258 16.365 5.68455 16.2 5.74317 15.675C5.77248 15.405 6.13881 15.135 6.82753 14.85C11.1064 12.945 13.9492 11.685 15.3706 11.085C19.4443 9.345 20.2795 9.045 20.8363 9.045C20.9536 9.045 21.232 9.075 21.4078 9.225C21.5544 9.345 21.5983 9.51 21.613 9.63C21.5983 9.72 21.6276 9.99 21.613 10.2Z" fill="white"/>
</svg>
