<svg width="31" height="31" viewBox="0 0 31 31" fill="none" xmlns="http://www.w3.org/2000/svg">
<path d="M15.8496 0.5C7.56961 0.5 0.849609 7.22 0.849609 15.5C0.849609 23.78 7.56961 30.5 15.8496 30.5C24.1296 30.5 30.8496 23.78 30.8496 15.5C30.8496 7.22 24.1296 0.5 15.8496 0.5ZM22.8096 10.7C22.5846 13.07 21.6096 18.83 21.1146 21.485C20.9046 22.61 20.4846 22.985 20.0946 23.03C19.2246 23.105 18.5646 22.46 17.7246 21.905C16.4046 21.035 15.6546 20.495 14.3796 19.655C12.8946 18.68 13.8546 18.14 14.7096 17.27C14.9346 17.045 18.7746 13.55 18.8496 13.235C18.86 13.1873 18.8586 13.1378 18.8456 13.0907C18.8325 13.0437 18.8081 13.0005 18.7746 12.965C18.6846 12.89 18.5646 12.92 18.4596 12.935C18.3246 12.965 16.2246 14.36 12.1296 17.12C11.5296 17.525 10.9896 17.735 10.5096 17.72C9.96961 17.705 8.94961 17.42 8.18461 17.165C7.23961 16.865 6.50461 16.7 6.56461 16.175C6.59461 15.905 6.96961 15.635 7.67461 15.35C12.0546 13.445 14.9646 12.185 16.4196 11.585C20.5896 9.845 21.4446 9.545 22.0146 9.545C22.1346 9.545 22.4196 9.575 22.5996 9.725C22.7496 9.845 22.7946 10.01 22.8096 10.13C22.7946 10.22 22.8246 10.49 22.8096 10.7Z" fill="#2E5170"/>
</svg>
