<svg width="31" height="30" viewBox="0 0 31 30" fill="none" xmlns="http://www.w3.org/2000/svg">
<path d="M20.0763 0H10.8738C2.4648 0 0.466797 1.9995 0.466797 10.3905V19.5945C0.466797 28.0005 2.4513 30 10.8573 30H20.0613C28.4673 30 30.4668 28.0155 30.4668 19.6095V10.407C30.4668 1.998 28.4823 0 20.0763 0ZM24.6858 21.405H22.4973C21.6693 21.405 21.4203 20.7345 19.9353 19.2495C18.6393 18 18.0918 17.844 17.7633 17.844C17.3103 17.844 17.1858 17.9685 17.1858 18.594V20.562C17.1858 21.0945 17.0133 21.4065 15.6228 21.4065C14.2733 21.3158 12.9647 20.9058 11.8047 20.2103C10.6447 19.5148 9.66655 18.5536 8.9508 17.406C7.25155 15.291 6.06921 12.8087 5.4978 10.1565C5.4978 9.828 5.6223 9.531 6.2478 9.531H8.4363C8.9988 9.531 9.2013 9.7815 9.4203 10.359C10.4823 13.485 12.2943 16.203 13.0293 16.203C13.3113 16.203 13.4343 16.0785 13.4343 15.375V12.156C13.3413 10.6875 12.5613 10.563 12.5613 10.032C12.5713 9.89194 12.6355 9.7613 12.7402 9.66777C12.845 9.57424 12.982 9.52518 13.1223 9.531H16.5603C17.0298 9.531 17.1858 9.765 17.1858 10.3275V14.6715C17.1858 15.141 17.3883 15.297 17.5293 15.297C17.8113 15.297 18.0288 15.141 18.5448 14.625C19.6531 13.2734 20.5586 11.7676 21.2328 10.155C21.3017 9.9613 21.4321 9.79546 21.6041 9.68279C21.7761 9.57012 21.9802 9.51681 22.1853 9.531H24.3738C25.0293 9.531 25.1688 9.8595 25.0293 10.3275C24.2335 12.1101 23.2489 13.8023 22.0923 15.375C21.8568 15.735 21.7623 15.9225 22.0923 16.344C22.3098 16.6725 23.0763 17.313 23.5923 17.922C24.3422 18.67 24.9648 19.5353 25.4358 20.484C25.6233 21.093 25.3098 21.405 24.6858 21.405Z" fill="#1E1E1E"/>
</svg>
