<svg width="31" height="30" viewBox="0 0 31 30" fill="none" xmlns="http://www.w3.org/2000/svg">
<path d="M20.0773 0H10.8748C2.46577 0 0.467773 1.9995 0.467773 10.3905V19.5945C0.467773 28.0005 2.45227 30 10.8583 30H20.0623C28.4683 30 30.4678 28.0155 30.4678 19.6095V10.407C30.4678 1.998 28.4833 0 20.0773 0ZM24.6868 21.405H22.4983C21.6703 21.405 21.4213 20.7345 19.9363 19.2495C18.6403 18 18.0928 17.844 17.7643 17.844C17.3113 17.844 17.1868 17.9685 17.1868 18.594V20.562C17.1868 21.0945 17.0143 21.4065 15.6238 21.4065C14.2743 21.3158 12.9657 20.9058 11.8057 20.2103C10.6457 19.5148 9.66753 18.5536 8.95177 17.406C7.25253 15.291 6.07019 12.8087 5.49877 10.1565C5.49877 9.828 5.62327 9.531 6.24877 9.531H8.43727C8.99977 9.531 9.20227 9.7815 9.42127 10.359C10.4833 13.485 12.2953 16.203 13.0303 16.203C13.3123 16.203 13.4353 16.0785 13.4353 15.375V12.156C13.3423 10.6875 12.5623 10.563 12.5623 10.032C12.5723 9.89194 12.6365 9.7613 12.7412 9.66777C12.8459 9.57424 12.983 9.52518 13.1233 9.531H16.5613C17.0308 9.531 17.1868 9.765 17.1868 10.3275V14.6715C17.1868 15.141 17.3893 15.297 17.5303 15.297C17.8123 15.297 18.0298 15.141 18.5458 14.625C19.6541 13.2734 20.5596 11.7676 21.2338 10.155C21.3027 9.9613 21.4331 9.79546 21.6051 9.68279C21.777 9.57012 21.9812 9.51681 22.1863 9.531H24.3748C25.0303 9.531 25.1698 9.8595 25.0303 10.3275C24.2345 12.1101 23.2499 13.8023 22.0933 15.375C21.8578 15.735 21.7633 15.9225 22.0933 16.344C22.3108 16.6725 23.0773 17.313 23.5933 17.922C24.3431 18.67 24.9658 19.5353 25.4368 20.484C25.6243 21.093 25.3108 21.405 24.6868 21.405Z" fill="white"/>
</svg>
