<svg width="30" height="30" viewBox="0 0 30 30" fill="none" xmlns="http://www.w3.org/2000/svg">
<path d="M24.911 4.36508C23.5676 2.97597 21.9674 1.87459 20.2038 1.12516C18.4401 0.37574 16.5484 -0.00672015 14.6389 8.93542e-05C6.63805 8.93542e-05 0.117228 6.67507 0.117228 14.865C0.117228 17.49 0.791291 20.04 2.05149 22.29L0 30L7.6931 27.93C9.81787 29.115 12.2064 29.745 14.6389 29.745C22.6397 29.745 29.1605 23.07 29.1605 14.88C29.1605 10.9051 27.6512 7.17007 24.911 4.36508ZM14.6389 27.225C12.4702 27.225 10.3454 26.625 8.48439 25.5L8.04479 25.23L3.47289 26.46L4.68913 21.9L4.39606 21.435C3.19117 19.4655 2.55138 17.1889 2.54971 14.865C2.54971 8.05507 7.97152 2.50508 14.6242 2.50508C17.848 2.50508 20.8813 3.79508 23.1526 6.13507C24.2772 7.28101 25.1685 8.64406 25.7747 10.1452C26.3809 11.6463 26.69 13.2557 26.6841 14.88C26.7134 21.69 21.2916 27.225 14.6389 27.225ZM21.2623 17.985C20.8959 17.805 19.1082 16.905 18.7858 16.77C18.4488 16.65 18.2143 16.59 17.9652 16.95C17.7161 17.325 17.0274 18.165 16.8223 18.405C16.6171 18.66 16.3973 18.69 16.031 18.495C15.6646 18.315 14.4923 17.91 13.1149 16.65C12.0305 15.66 11.3125 14.445 11.0927 14.07C10.8876 13.695 11.0634 13.5 11.2539 13.305C11.4151 13.14 11.6202 12.8701 11.7961 12.6601C11.9719 12.4501 12.0452 12.2851 12.1624 12.0451C12.2797 11.7901 12.221 11.5801 12.1331 11.4001C12.0452 11.2201 11.3125 9.39006 11.0195 8.64006C10.7264 7.92007 10.4187 8.01007 10.1989 7.99507H9.49549C9.24638 7.99507 8.86539 8.08507 8.52835 8.46006C8.20598 8.83506 7.26815 9.73506 7.26815 11.5651C7.26815 13.3951 8.57232 15.165 8.74816 15.405C8.924 15.66 11.3125 19.41 14.9466 21.015C15.8112 21.405 16.4852 21.63 17.0127 21.795C17.8773 22.08 18.6686 22.035 19.2987 21.945C20.0021 21.84 21.4528 21.045 21.7458 20.175C22.0536 19.305 22.0536 18.57 21.951 18.405C21.8484 18.24 21.6286 18.165 21.2623 17.985Z" fill="white"/>
</svg>
