<svg width="31" height="31" viewBox="0 0 31 31" fill="none" xmlns="http://www.w3.org/2000/svg">
<path d="M26.4777 4.86508C25.0956 3.47597 23.4494 2.37459 21.635 1.62516C19.8206 0.87574 17.8744 0.49328 15.9099 0.500089C7.67875 0.500089 0.970213 7.17507 0.970213 15.365C0.970213 17.99 1.66368 20.54 2.96016 22.79L0.849609 30.5L8.76418 28.43C10.9501 29.615 13.4074 30.245 15.9099 30.245C24.1411 30.245 30.8496 23.57 30.8496 15.38C30.8496 11.4051 29.2968 7.67007 26.4777 4.86508ZM15.9099 27.725C13.6788 27.725 11.4928 27.125 9.57825 26L9.12599 25.73L4.42247 26.96L5.67373 22.4L5.37222 21.935C4.13264 19.9655 3.47444 17.6889 3.47272 15.365C3.47272 8.55507 9.05061 3.00508 15.8948 3.00508C19.2114 3.00508 22.332 4.29508 24.6687 6.63507C25.8257 7.78101 26.7426 9.14406 27.3663 10.6452C27.9899 12.1463 28.3079 13.7557 28.3019 15.38C28.332 22.19 22.7541 27.725 15.9099 27.725ZM22.724 18.485C22.3471 18.305 20.5079 17.405 20.1762 17.27C19.8295 17.15 19.5883 17.09 19.332 17.45C19.0757 17.825 18.3672 18.665 18.1561 18.905C17.9451 19.16 17.719 19.19 17.3421 18.995C16.9652 18.815 15.7592 18.41 14.3421 17.15C13.2265 16.16 12.4878 14.945 12.2617 14.57C12.0506 14.195 12.2315 14 12.4275 13.805C12.5933 13.64 12.8044 13.3701 12.9853 13.1601C13.1662 12.9501 13.2416 12.7851 13.3622 12.5451C13.4828 12.2901 13.4225 12.0801 13.332 11.9001C13.2416 11.7201 12.4878 9.89006 12.1863 9.14006C11.8848 8.42007 11.5682 8.51007 11.3421 8.49507H10.6185C10.3622 8.49507 9.97021 8.58507 9.62348 8.96006C9.29182 9.33506 8.327 10.2351 8.327 12.0651C8.327 13.8951 9.6687 15.665 9.84961 15.905C10.0305 16.16 12.4878 19.91 16.2265 21.515C17.1159 21.905 17.8094 22.13 18.3521 22.295C19.2416 22.58 20.0556 22.535 20.7039 22.445C21.4275 22.34 22.92 21.545 23.2215 20.675C23.538 19.805 23.5381 19.07 23.4325 18.905C23.327 18.74 23.1009 18.665 22.724 18.485Z" fill="#2E5170"/>
</svg>
